# xmcd
#
# Track frame offsets: 
#        150
#        12863
#        23679
#        40449
#        56524
#        79391
#        95698
#        110921
#        127857
#        147543
#
# Disc length: 2321 seconds
#
# Revision: 0
# Processed by: cddbd v1.5.2PL0 Copyright (c) Steve Scherf et al.
# Submitted via: ExactAudioCopy v0.99pb5
#
DISCID=88090f0a
DTITLE=Beastmilk - Climax
DYEAR=2013
DGENRE=Gothic Rock
TTITLE0=Death Reflects Us
TTITLE1=The Wind Blows Through Their Skulls
TTITLE2=Genocidal Crush
TTITLE3=You Are Now Under Our Control
TTITLE4=Ghosts Out Of Focus
TTITLE5=Nuclear Winter
TTITLE6=Fear Your Mind
TTITLE7=Love In A Cold World
TTITLE8=Surf The Apocalypse
TTITLE9=Strange Attractors
EXTD=
EXTT0=
EXTT1=
EXTT2=
EXTT3=
EXTT4=
EXTT5=
EXTT6=
EXTT7=
EXTT8=
EXTT9=
PLAYORDER=
